<mxfile host="app.diagrams.net" modified="2022-02-23T08:31:07.040Z" agent="5.0 (Macintosh; Intel Mac OS X 10_15_7) AppleWebKit/537.36 (KHTML, like Gecko) Chrome/96.0.4664.110 Safari/537.36" etag="rHwsU_DIz2aHKjYz27e2" version="16.6.1" type="github">
  <diagram id="6a731a19-8d31-9384-78a2-239565b7b9f0" name="Page-1">
    <mxGraphModel dx="33" dy="551" grid="1" gridSize="10" guides="1" tooltips="1" connect="1" arrows="1" fold="1" page="1" pageScale="1" pageWidth="827" pageHeight="1169" background="none" math="0" shadow="0">
      <root>
        <mxCell id="0" />
        <mxCell id="1" parent="0" />
        <mxCell id="pQYzgYxjAnABNGYKjhFb-2274" style="edgeStyle=orthogonalEdgeStyle;rounded=0;orthogonalLoop=1;jettySize=auto;html=1;exitX=0.5;exitY=0;exitDx=0;exitDy=0;exitPerimeter=0;entryX=0.55;entryY=0.95;entryDx=0;entryDy=0;entryPerimeter=0;fontSize=14;" parent="1" source="pQYzgYxjAnABNGYKjhFb-2257" target="pQYzgYxjAnABNGYKjhFb-2273" edge="1">
          <mxGeometry relative="1" as="geometry" />
        </mxCell>
        <mxCell id="pQYzgYxjAnABNGYKjhFb-2257" value="" style="shape=mxgraph.cisco.routers.router;sketch=0;html=1;pointerEvents=1;dashed=0;fillColor=#036897;strokeColor=#ffffff;strokeWidth=2;verticalLabelPosition=bottom;verticalAlign=top;align=center;outlineConnect=0;" parent="1" vertex="1">
          <mxGeometry x="1190" y="290" width="78" height="53" as="geometry" />
        </mxCell>
        <mxCell id="pQYzgYxjAnABNGYKjhFb-2262" style="edgeStyle=orthogonalEdgeStyle;rounded=0;orthogonalLoop=1;jettySize=auto;html=1;exitX=0.5;exitY=0;exitDx=0;exitDy=0;exitPerimeter=0;entryX=0.5;entryY=1;entryDx=0;entryDy=0;entryPerimeter=0;" parent="1" source="pQYzgYxjAnABNGYKjhFb-2258" target="pQYzgYxjAnABNGYKjhFb-2257" edge="1">
          <mxGeometry relative="1" as="geometry" />
        </mxCell>
        <mxCell id="pQYzgYxjAnABNGYKjhFb-2263" style="edgeStyle=orthogonalEdgeStyle;rounded=0;orthogonalLoop=1;jettySize=auto;html=1;exitX=0.5;exitY=1;exitDx=0;exitDy=0;exitPerimeter=0;entryX=0.5;entryY=0.01;entryDx=0;entryDy=0;entryPerimeter=0;" parent="1" source="pQYzgYxjAnABNGYKjhFb-2258" target="pQYzgYxjAnABNGYKjhFb-2270" edge="1">
          <mxGeometry relative="1" as="geometry">
            <mxPoint x="1161.5" y="660" as="targetPoint" />
          </mxGeometry>
        </mxCell>
        <mxCell id="pQYzgYxjAnABNGYKjhFb-2264" style="edgeStyle=orthogonalEdgeStyle;rounded=0;orthogonalLoop=1;jettySize=auto;html=1;exitX=0;exitY=1;exitDx=0;exitDy=0;exitPerimeter=0;entryX=1;entryY=0;entryDx=0;entryDy=0;entryPerimeter=0;" parent="1" source="pQYzgYxjAnABNGYKjhFb-2258" target="pQYzgYxjAnABNGYKjhFb-2261" edge="1">
          <mxGeometry relative="1" as="geometry" />
        </mxCell>
        <mxCell id="pQYzgYxjAnABNGYKjhFb-2258" value="" style="shape=mxgraph.cisco.switches.layer_2_remote_switch;sketch=0;html=1;pointerEvents=1;dashed=0;fillColor=#036897;strokeColor=#ffffff;strokeWidth=2;verticalLabelPosition=bottom;verticalAlign=top;align=center;outlineConnect=0;" parent="1" vertex="1">
          <mxGeometry x="1040" y="510" width="101" height="50" as="geometry" />
        </mxCell>
        <mxCell id="pQYzgYxjAnABNGYKjhFb-2261" value="" style="shape=mxgraph.cisco.computers_and_peripherals.video_camera;sketch=0;html=1;pointerEvents=1;dashed=0;fillColor=#036897;strokeColor=#ffffff;strokeWidth=2;verticalLabelPosition=bottom;verticalAlign=top;align=center;outlineConnect=0;" parent="1" vertex="1">
          <mxGeometry x="930" y="650" width="67" height="98" as="geometry" />
        </mxCell>
        <mxCell id="pQYzgYxjAnABNGYKjhFb-2268" value="" style="shape=mxgraph.cisco.computers_and_peripherals.laptop;sketch=0;html=1;pointerEvents=1;dashed=0;fillColor=#036897;strokeColor=#ffffff;strokeWidth=2;verticalLabelPosition=bottom;verticalAlign=top;align=center;outlineConnect=0;" parent="1" vertex="1">
          <mxGeometry x="1410" y="290" width="90" height="61" as="geometry" />
        </mxCell>
        <mxCell id="pQYzgYxjAnABNGYKjhFb-2269" value="" style="shape=mxgraph.cisco.computers_and_peripherals.laptop;sketch=0;html=1;pointerEvents=1;dashed=0;fillColor=#036897;strokeColor=#ffffff;strokeWidth=2;verticalLabelPosition=bottom;verticalAlign=top;align=center;outlineConnect=0;" parent="1" vertex="1">
          <mxGeometry x="1330" y="400" width="90" height="61" as="geometry" />
        </mxCell>
        <mxCell id="pQYzgYxjAnABNGYKjhFb-2270" value="" style="shape=mxgraph.cisco.computers_and_peripherals.video_camera;sketch=0;html=1;pointerEvents=1;dashed=0;fillColor=#036897;strokeColor=#ffffff;strokeWidth=2;verticalLabelPosition=bottom;verticalAlign=top;align=center;outlineConnect=0;" parent="1" vertex="1">
          <mxGeometry x="1110" y="650" width="67" height="98" as="geometry" />
        </mxCell>
        <mxCell id="pQYzgYxjAnABNGYKjhFb-2273" value="&lt;font style=&quot;font-size: 14px&quot;&gt;ISP&lt;/font&gt;" style="ellipse;shape=cloud;whiteSpace=wrap;html=1;" parent="1" vertex="1">
          <mxGeometry x="1169" y="150" width="120" height="80" as="geometry" />
        </mxCell>
        <mxCell id="pQYzgYxjAnABNGYKjhFb-2275" value="" style="points=[[0,0.58,0],[0.09,0.58,0],[0.36,0.39,0],[0.64,0.195,0],[0.91,0,0],[1,0,0],[1,0.25,0],[1,0.5,0],[1,0.75,0],[1,1,0],[0,1,0],[0.09,1,0],[0.36,1,0],[0.64,1,0],[0.91,1,0],[0,0.79,0]];verticalLabelPosition=bottom;sketch=0;html=1;verticalAlign=top;aspect=fixed;align=center;pointerEvents=1;shape=mxgraph.cisco19.wifi_indicator;fillColor=#005073;strokeColor=none;fontSize=14;" parent="1" vertex="1">
          <mxGeometry x="1310" y="320.5" width="40" height="40" as="geometry" />
        </mxCell>
        <mxCell id="pQYzgYxjAnABNGYKjhFb-2278" value="&lt;font style=&quot;font-size: 16px&quot;&gt;Сеть видеонаблюдения&lt;/font&gt;" style="text;html=1;align=center;verticalAlign=middle;resizable=0;points=[];autosize=1;strokeColor=none;fillColor=none;fontSize=14;" parent="1" vertex="1">
          <mxGeometry x="1100" y="50" width="200" height="20" as="geometry" />
        </mxCell>
      </root>
    </mxGraphModel>
  </diagram>
</mxfile>
